<svg width="2795" height="2795" viewBox="0 0 2795 2795" fill="none" xmlns="http://www.w3.org/2000/svg">
<g clip-path="url(#clip0_66_1678)">
<rect width="2795" height="2795" rx="661.539" fill="black"/>
<path d="M-377.076 1928.38C-301.069 2101.61 -250.129 2214 -94.2686 2381.54C28.5991 2447.43 248.077 2480.77 342.347 2288.92C436.616 2097.08 716.912 745.357 834.611 563.165C952.309 380.973 1195.39 412.38 1271.81 563.165C1348.23 713.951 1335.45 2105.35 1495.08 2288.92C1654.71 2472.5 1846.98 2371.01 1890.35 2244.27C2077.28 1697.89 2211.19 866.615 2417.92 509.384C2624.65 152.154 3000.84 375.794 3114.32 575.651C3227.79 775.507 3198.28 854.412 3198.28 854.412" stroke="white" stroke-width="231.538"/>
</g>
<defs>
<clipPath id="clip0_66_1678">
<rect width="2795" height="2795" rx="661.539" fill="white"/>
</clipPath>
</defs>
</svg>
